:SAMPLES-PER-SECOND 30
:FULLY-SPECIFIED
:DEGREES
351
root  7.261066737 37.92422137 4.718844346 -174.1149902 -59.27330017 170.7979736
lowerback  13.58790016 3.475699902 4.476880074
upperback  5.735060215 4.804369926 2.963700056
thorax  -1.433300018 2.243839979 -0.1069940031
lowerneck  0.2675099969 9.425370216 2.586199999
upperneck  15.31680012 12.36550045 -0.5986790061
head  4.770860195 6.058400154 -0.09205909818
lclavicle  0 -9.442270133e-015 7.951389973e-016
lhumerus  -12.8448 0.9364370108 83.85919952
lradius  2.649143529e-031 -2.33471253e-031 138.6100006
lwrist  -7.062250077e-031 -0 20.91570091
lhand  -1.496451383e-031 -27.76390076 20.11240005
lfingers  90 7.125020027 -90
lthumb  89.89689403 5.08795885 91.16245106
rclavicle  0 -9.442270133e-015 7.951389973e-016
rhumerus  18.90970039 38.7057991 -69.60910034
rradius  -9.752054338e-032 3.393791154e-031 106.0319977
rwrist  7.062250077e-031 5.296687558e-031 -50.16659927
rhand  -7.920061211e-032 -33.2840004 9.303460121
rfingers  -90 -7.125020027 -90
rthumb  -92.93752616 -24.25625642 -97.11982154
rfemur  -10.82289982 11.4762001 -1.264960051
rtibia  -0 0 54.8268013
rfoot  -0 -21.96780014 -9.312379837
rtoes  5.373923086 19.29304026 -105.8922705
lfemur  -22.38089943 4.362040043 -6.484079838
ltibia  -0 0 61.02730179
lfoot  4.464174249e-032 -8.606389999 -1.866400003
ltoes  -4.250644065 -19.5611806 -102.515957
352
root  7.134888867 38.20866562 4.75446671 -173.7650146 -59.22729874 170.2860107
lowerback  14.74269962 3.352469921 5.068389893
upperback  5.176539898 4.838880062 2.247849941
thorax  -2.52286005 2.256819963 -1.276260018
lowerneck  -0.6170989871 9.506950378 3.186369896
upperneck  15.93470001 12.37030029 -0.1431549937
head  5.11906004 6.107470036 0.02019049972
lclavicle  0 -9.442270133e-015 7.951389973e-016
lhumerus  -15.85630035 0.2153380066 84.49120331
lradius  2.638971853e-031 -2.346203657e-031 138.3609924
lwrist  -7.062250077e-031 8.827812596e-032 19.53960037
lhand  -1.496451383e-031 -27.76390076 20.11240005
lfingers  90 7.125020027 -90
lthumb  89.89689403 5.08795885 91.16245106
rclavicle  0 -9.442270133e-015 7.951389973e-016
rhumerus  13.52210045 38.99639893 -72.67299652
rradius  -9.788775397e-032 3.392733824e-031 106.0940018
rwrist  7.062250077e-031 7.062250077e-031 -48.57720184
rhand  -7.920061211e-032 -33.2840004 9.303460121
rfingers  -90 -7.125020027 -90
rthumb  -92.93752616 -24.25625642 -97.11982154
rfemur  -10.69579983 11.83829975 -1.790230036
rtibia  -0 0 54.38729858
rfoot  -0 -20.23150063 -7.904029846
rtoes  5.373923086 19.29304026 -105.8922705
lfemur  -22.43149948 5.183179855 -6.592679977
ltibia  -0 0 60.88330078
lfoot  4.435542735e-032 -5.661530018 -3.42798996
ltoes  -4.250644065 -19.5611806 -102.515957
353
root  6.974422275 38.47822355 4.865533348 -172.177002 -59.44710159 168.9219971
lowerback  12.97340012 3.844480038 2.544250011
upperback  5.993100166 5.020909786 4.021090031
thorax  -1.099159956 2.309210062 2.074959993
lowerneck  -1.906559944 9.363490105 1.330019951
upperneck  15.89009953 12.50249958 -1.319390059
head  5.276810169 6.004640102 0.01912890002
lclavicle  0 -9.442270133e-015 7.951389973e-016
lhumerus  -17.27890015 0.8970339894 89.09210205
lradius  2.621826709e-031 -2.365347489e-031 137.9440002
lwrist  -1.412450015e-030 1.765562519e-031 17.53510094
lhand  -1.496451383e-031 -27.76390076 20.11240005
lfingers  90 7.125020027 -90
lthumb  89.89689403 5.08795885 91.16245106
rclavicle  0 -9.442270133e-015 7.951389973e-016
rhumerus  11.08250046 39.15719986 -70.13880157
rradius  -9.9248867e-032 3.388777106e-031 106.3239975
rwrist  7.062250077e-031 7.062250077e-031 -49.12900162
rhand  -7.920061211e-032 -33.2840004 9.303460121
rfingers  -90 -7.125020027 -90
rthumb  -92.93752616 -24.25625642 -97.11982154
rfemur  -11.05930042 11.32279968 -3.145620108
rtibia  -0 0 53.97399902
rfoot  -4.645482889e-032 -18.16729927 -6.169760227
rtoes  5.373923086 19.29304026 -105.8922705
lfemur  -23.20219994 5.730309963 -7.367939949
ltibia  -0 0 60.57329941
lfoot  4.417883746e-032 -2.43144989 -4.633880138
ltoes  -4.250644065 -19.5611806 -102.515957
354
root  6.832466726 38.74888983 4.949888845 -171.6170044 -59.48559952 168.3599854
lowerback  14.19139957 3.294420004 4.555270195
upperback  5.359340191 4.649819851 2.243959904
thorax  -2.089960098 2.173870087 -0.9271199703
lowerneck  -2.777859926 9.657290459 2.923650026
upperneck  16.34740067 12.66009998 -0.5311740041
head  5.622099876 6.208859921 0.09051050246
lclavicle  0 -9.442270133e-015 7.951389973e-016
lhumerus  -19.76040077 0.4440369904 87.28209686
lradius  2.613512523e-031 -2.37453076e-031 137.7429962
lwrist  -7.062250077e-031 1.765562519e-031 17.10090065
lhand  -1.496451383e-031 -27.76390076 20.11240005
lfingers  90 7.125020027 -90
lthumb  89.89689403 5.08795885 91.16245106
rclavicle  0 -9.442270133e-015 7.951389973e-016
rhumerus  5.827489853 38.41790009 -75.02290344
rradius  -9.859808238e-032 3.390676312e-031 106.2139969
rwrist  0 3.531125038e-031 -48.40240097
rhand  -7.920061211e-032 -33.2840004 9.303460121
rfingers  -90 -7.125020027 -90
rthumb  -92.93752616 -24.25625642 -97.11982154
rfemur  -11.17350006 11.20440006 -3.853640079
rtibia  -0 0 53.59790039
rfoot  -4.585844008e-032 -15.73910046 -5.157330036
rtoes  5.373923086 19.29304026 -105.8922705
lfemur  -23.41259956 6.443039894 -7.502999783
ltibia  -0 0 60.06689835
lfoot  4.414846084e-032 1.182229996 -6.000589848
ltoes  -4.250644065 -19.5611806 -102.515957
